AmstelvarItalic-opsz14-wght100-wdth125.ufo
<glyph name="one" format="2">
  <advance width="808"/>
  <unicode hex="0031"/>
  <outline>
    <contour>
      <point x="254" y="-14" type="line"/>
      <point x="276" y="48"/>
      <point x="311" y="169"/>
      <point x="329" y="276" type="qcurve" smooth="yes"/>
      <point x="460" y="1053" type="line"/>
      <point x="511" y="1407" type="line"/>
      <point x="82" y="1185" type="line"/>
      <point x="66" y="1232" type="line"/>
      <point x="633" y="1544" type="line"/>
      <point x="652" y="1528" type="line"/>
      <point x="623" y="1480"/>
      <point x="587" y="1346"/>
      <point x="578" y="1294" type="qcurve" smooth="yes"/>
      <point x="479" y="719" type="line"/>
      <point x="389" y="88" type="line"/>
      <point x="280" y="-26" type="line"/>
    </contour>
  </outline>
</glyph>
<glyph name="three" format="2">
  <advance width="1339"/>
  <unicode hex="0033"/>
  <outline>
    <contour>
      <point x="-20" y="200" type="qcurve" smooth="yes"/>
      <point x="-20" y="266"/>
      <point x="47" y="355"/>
      <point x="80" y="365" type="qcurve"/>
      <point x="110" y="364" type="line"/>
      <point x="92" y="324"/>
      <point x="76" y="253"/>
      <point x="77" y="219" type="qcurve" smooth="yes"/>
      <point x="87" y="131"/>
      <point x="259" y="43"/>
      <point x="419" y="43" type="qcurve" smooth="yes"/>
      <point x="714" y="43"/>
      <point x="1058" y="312"/>
      <point x="1058" y="484" type="qcurve" smooth="yes"/>
      <point x="1058" y="629"/>
      <point x="764" y="794"/>
      <point x="521" y="809" type="qcurve" smooth="yes"/>
      <point x="421" y="814" type="line"/>
      <point x="432" y="867" type="line"/>
      <point x="505" y="871" type="line" smooth="yes"/>
      <point x="741" y="884"/>
      <point x="1116" y="1088"/>
      <point x="1113" y="1246" type="qcurve" smooth="yes"/>
      <point x="1111" y="1366"/>
      <point x="942" y="1466"/>
      <point x="790" y="1466" type="qcurve" smooth="yes"/>
      <point x="659" y="1466"/>
      <point x="366" y="1357"/>
      <point x="265" y="1265" type="qcurve"/>
      <point x="233" y="1326" type="line"/>
      <point x="339" y="1423"/>
      <point x="614" y="1532"/>
      <point x="796" y="1532" type="qcurve" smooth="yes"/>
      <point x="989" y="1532"/>
      <point x="1187" y="1379"/>
      <point x="1187" y="1238" type="qcurve" smooth="yes"/>
      <point x="1187" y="1076"/>
      <point x="919" y="873"/>
      <point x="718" y="845" type="qcurve"/>
      <point x="717" y="839" type="line"/>
      <point x="903" y="815"/>
      <point x="1133" y="606"/>
      <point x="1133" y="451" type="qcurve" smooth="yes"/>
      <point x="1133" y="256"/>
      <point x="763" y="-18"/>
      <point x="413" y="-18" type="qcurve" smooth="yes"/>
      <point x="192" y="-18"/>
      <point x="-20" y="102"/>
    </contour>
  </outline>
</glyph>
<glyph name="six" format="2">
  <advance width="1296"/>
  <unicode hex="0036"/>
  <outline>
    <contour>
      <point x="55" y="447" type="qcurve" smooth="yes"/>
      <point x="61" y="789"/>
      <point x="689" y="1460"/>
      <point x="1158" y="1580" type="qcurve"/>
      <point x="1188" y="1527" type="line"/>
      <point x="771" y="1403"/>
      <point x="153" y="815"/>
      <point x="136" y="432" type="qcurve" smooth="yes"/>
      <point x="128" y="262"/>
      <point x="358" y="47"/>
      <point x="516" y="47" type="qcurve" smooth="yes"/>
      <point x="727" y="47"/>
      <point x="1042" y="313"/>
      <point x="1047" y="528" type="qcurve" smooth="yes"/>
      <point x="1050" y="668"/>
      <point x="856" y="839"/>
      <point x="684" y="832" type="qcurve" smooth="yes"/>
      <point x="605" y="829"/>
      <point x="462" y="773"/>
      <point x="410" y="743" type="qcurve"/>
      <point x="394" y="780" type="line"/>
      <point x="443" y="821"/>
      <point x="616" y="893"/>
      <point x="729" y="900" type="qcurve" smooth="yes"/>
      <point x="930" y="914"/>
      <point x="1117" y="705"/>
      <point x="1114" y="536" type="qcurve" smooth="yes"/>
      <point x="1108" y="310"/>
      <point x="780" y="-21"/>
      <point x="513" y="-21" type="qcurve" smooth="yes"/>
      <point x="335" y="-21"/>
      <point x="51" y="190"/>
    </contour>
  </outline>
</glyph>
<glyph name="C" format="2">
  <advance width="1659"/>
  <unicode hex="0043"/>
  <outline>
    <contour>
      <point x="183" y="839" type="qcurve" smooth="yes"/>
      <point x="267" y="1154"/>
      <point x="812" y="1544"/>
      <point x="1227" y="1523" type="qcurve" smooth="yes"/>
      <point x="1328" y="1518"/>
      <point x="1505" y="1473"/>
      <point x="1571" y="1448" type="qcurve"/>
      <point x="1606" y="1434" type="line"/>
      <point x="1637" y="1420" type="line"/>
      <point x="1576" y="1109" type="line"/>
      <point x="1501" y="1109" type="line"/>
      <point x="1509" y="1339" type="line"/>
      <point x="1466" y="1391"/>
      <point x="1271" y="1456"/>
      <point x="1160" y="1459" type="qcurve" smooth="yes"/>
      <point x="870" y="1461"/>
      <point x="353" y="1124"/>
      <point x="283" y="842" type="qcurve" smooth="yes"/>
      <point x="200" y="502"/>
      <point x="458" y="88"/>
      <point x="764" y="57" type="qcurve" smooth="yes"/>
      <point x="1003" y="34"/>
      <point x="1365" y="186"/>
      <point x="1482" y="311" type="qcurve"/>
      <point x="1514" y="297" type="line"/>
      <point x="1541" y="254" type="line"/>
      <point x="1389" y="92"/>
      <point x="969" y="-35"/>
      <point x="725" y="-16" type="qcurve" smooth="yes"/>
      <point x="384" y="10"/>
      <point x="91" y="487"/>
    </contour>
  </outline>
</glyph>
<glyph name="D" format="2">
  <advance width="1933"/>
  <unicode hex="0044"/>
  <outline>
    <contour>
      <point x="11" y="0" type="line"/>
      <point x="16" y="48" type="line"/>
      <point x="224" y="72" type="line"/>
      <point x="371" y="754" type="line"/>
      <point x="494" y="1426" type="line"/>
      <point x="277" y="1452" type="line"/>
      <point x="278" y="1500" type="line"/>
      <point x="1020" y="1500" type="line" smooth="yes"/>
      <point x="1417" y="1500"/>
      <point x="1843" y="1097"/>
      <point x="1801" y="760" type="qcurve" smooth="yes"/>
      <point x="1758" y="414"/>
      <point x="1222" y="0"/>
      <point x="760" y="0" type="qcurve" smooth="yes"/>
    </contour>
    <contour>
      <point x="326" y="79" type="line"/>
      <point x="356" y="75"/>
      <point x="730" y="66"/>
      <point x="817" y="67" type="qcurve" smooth="yes"/>
      <point x="1163" y="71"/>
      <point x="1648" y="441"/>
      <point x="1696" y="764" type="qcurve" smooth="yes"/>
      <point x="1742" y="1072"/>
      <point x="1361" y="1447"/>
      <point x="1026" y="1443" type="qcurve" smooth="yes"/>
      <point x="935" y="1441"/>
      <point x="638" y="1434"/>
      <point x="593" y="1429" type="qcurve"/>
      <point x="461" y="754" type="line"/>
    </contour>
  </outline>
</glyph>
<glyph name="L" format="2">
  <advance width="1374"/>
  <unicode hex="004C"/>
  <outline>
    <contour>
      <point x="0" y="0" type="line"/>
      <point x="19" y="48" type="line"/>
      <point x="227" y="76" type="line"/>
      <point x="381" y="806" type="line"/>
      <point x="489" y="1436" type="line"/>
      <point x="268" y="1452" type="line"/>
      <point x="270" y="1500" type="line"/>
      <point x="799" y="1500" type="line"/>
      <point x="781" y="1452" type="line"/>
      <point x="589" y="1436" type="line"/>
      <point x="461" y="754" type="line"/>
      <point x="334" y="95" type="line"/>
      <point x="358" y="68" type="line"/>
      <point x="1061" y="68" type="line"/>
      <point x="1208" y="369" type="line"/>
      <point x="1279" y="369" type="line"/>
      <point x="1160" y="0" type="line"/>
    </contour>
  </outline>
</glyph>
<glyph name="N" format="2">
  <advance width="2058"/>
  <unicode hex="004E"/>
  <outline>
    <contour>
      <point x="-10" y="0" type="line"/>
      <point x="4" y="48" type="line"/>
      <point x="221" y="73" type="line"/>
      <point x="365" y="753" type="line"/>
      <point x="498" y="1427" type="line"/>
      <point x="270" y="1453" type="line"/>
      <point x="274" y="1500" type="line"/>
      <point x="674" y="1500" type="line"/>
      <point x="1091" y="807" type="line"/>
      <point x="1493" y="94" type="line"/>
      <point x="1629" y="751" type="line"/>
      <point x="1748" y="1427" type="line"/>
      <point x="1497" y="1453" type="line"/>
      <point x="1504" y="1500" type="line"/>
      <point x="2095" y="1500" type="line"/>
      <point x="2089" y="1453" type="line"/>
      <point x="1860" y="1427" type="line"/>
      <point x="1728" y="753" type="line"/>
      <point x="1585" y="-4" type="line"/>
      <point x="1475" y="-4" type="line"/>
      <point x="1002" y="787" type="line"/>
      <point x="611" y="1455" type="line"/>
      <point x="465" y="755" type="line"/>
      <point x="326" y="73" type="line"/>
      <point x="592" y="48" type="line"/>
      <point x="583" y="0" type="line"/>
    </contour>
  </outline>
</glyph>
<glyph name="X" format="2">
  <advance width="1736"/>
  <unicode hex="0058"/>
  <outline>
    <contour>
      <point x="-97" y="0" type="line"/>
      <point x="-89" y="48" type="line"/>
      <point x="125" y="73" type="line"/>
      <point x="927" y="849" type="line"/>
      <point x="948" y="849" type="line"/>
      <point x="1514" y="1422" type="line"/>
      <point x="1288" y="1452" type="line"/>
      <point x="1295" y="1500" type="line"/>
      <point x="1884" y="1500" type="line"/>
      <point x="1876" y="1452" type="line"/>
      <point x="1660" y="1425" type="line"/>
      <point x="975" y="757" type="line"/>
      <point x="955" y="757" type="line"/>
      <point x="273" y="78" type="line"/>
      <point x="511" y="48" type="line"/>
      <point x="503" y="0" type="line"/>
    </contour>
    <contour>
      <point x="313" y="1453" type="line"/>
      <point x="320" y="1500" type="line"/>
      <point x="909" y="1500" type="line"/>
      <point x="902" y="1452" type="line"/>
      <point x="657" y="1427" type="line"/>
      <point x="954" y="823" type="line"/>
      <point x="1356" y="73" type="line"/>
      <point x="1605" y="48" type="line"/>
      <point x="1595" y="0" type="line"/>
      <point x="974" y="0" type="line"/>
      <point x="983" y="48" type="line"/>
      <point x="1248" y="73" type="line"/>
      <point x="910" y="754" type="line"/>
      <point x="555" y="1424" type="line"/>
    </contour>
  </outline>
</glyph>
<glyph name="Z" format="2">
  <advance width="1432"/>
  <unicode hex="005A"/>
  <outline>
    <contour>
      <point x="-21" y="0" type="line"/>
      <point x="-41" y="52" type="line"/>
      <point x="690" y="785" type="line"/>
      <point x="1301" y="1421" type="line"/>
      <point x="1287" y="1437" type="line"/>
      <point x="407" y="1437" type="line"/>
      <point x="293" y="1171" type="line"/>
      <point x="221" y="1171" type="line"/>
      <point x="294" y="1500" type="line"/>
      <point x="1494" y="1500" type="line"/>
      <point x="1488" y="1449" type="line"/>
      <point x="750" y="719" type="line"/>
      <point x="129" y="84" type="line"/>
      <point x="143" y="68" type="line"/>
      <point x="1099" y="68" type="line"/>
      <point x="1233" y="359" type="line"/>
      <point x="1318" y="359" type="line"/>
      <point x="1208" y="0" type="line"/>
    </contour>
  </outline>
</glyph>
<glyph name="d" format="2">
  <advance width="1626"/>
  <unicode hex="0064"/>
  <outline>
    <contour>
      <point x="72" y="231" type="qcurve" smooth="yes"/>
      <point x="60" y="543"/>
      <point x="609" y="1009"/>
      <point x="1077" y="1000" type="qcurve" smooth="yes"/>
      <point x="1265" y="1000" type="line"/>
      <point x="1354" y="1470" type="line"/>
      <point x="1150" y="1512" type="line"/>
      <point x="1156" y="1557" type="line"/>
      <point x="1419" y="1608" type="line"/>
      <point x="1450" y="1571" type="line"/>
      <point x="1243" y="469" type="line"/>
      <point x="1168" y="89" type="line"/>
      <point x="1455" y="89" type="line"/>
      <point x="1454" y="44" type="line"/>
      <point x="1150" y="-16" type="line"/>
      <point x="1088" y="57" type="line"/>
      <point x="1106" y="192" type="line"/>
      <point x="1005" y="121"/>
      <point x="662" y="-10"/>
      <point x="439" y="-10" type="qcurve" smooth="yes"/>
      <point x="263" y="-10"/>
      <point x="76" y="114"/>
    </contour>
    <contour>
      <point x="172" y="250" type="qcurve" smooth="yes"/>
      <point x="174" y="124"/>
      <point x="331" y="45"/>
      <point x="455" y="45" type="qcurve" smooth="yes"/>
      <point x="673" y="45"/>
      <point x="1108" y="226"/>
      <point x="1142" y="403" type="qcurve" smooth="yes"/>
      <point x="1238" y="858" type="line"/>
      <point x="1240" y="882"/>
      <point x="1106" y="932"/>
      <point x="934" y="932" type="qcurve" smooth="yes"/>
      <point x="605" y="932"/>
      <point x="168" y="500"/>
    </contour>
  </outline>
</glyph>
<glyph name="j" format="2">
  <advance width="610"/>
  <unicode hex="006A"/>
  <outline>
    <contour>
      <point x="278" y="874" type="qcurve"/>
      <point x="71" y="872" type="line"/>
      <point x="73" y="915" type="line"/>
      <point x="336" y="1004" type="line"/>
      <point x="379" y="1004" type="line"/>
      <point x="384" y="948" type="line"/>
      <point x="355" y="849" type="line"/>
      <point x="230" y="132" type="line"/>
      <point x="188" y="-127"/>
      <point x="46" y="-464"/>
      <point x="-143" y="-464" type="qcurve"/>
      <point x="-313" y="-425" type="line"/>
      <point x="-305" y="-388" type="line"/>
      <point x="-147" y="-390" type="line" smooth="yes"/>
      <point x="-4" y="-392"/>
      <point x="95" y="-135"/>
      <point x="141" y="105" type="qcurve" smooth="yes"/>
      <point x="173" y="270"/>
      <point x="256" y="741"/>
    </contour>
    <contour>
      <point x="232" y="1338" type="qcurve" smooth="yes"/>
      <point x="238" y="1390"/>
      <point x="290" y="1444"/>
      <point x="336" y="1444" type="qcurve" smooth="yes"/>
      <point x="377" y="1444"/>
      <point x="423" y="1386"/>
      <point x="418" y="1338" type="qcurve" smooth="yes"/>
      <point x="412" y="1288"/>
      <point x="360" y="1234"/>
      <point x="314" y="1234" type="qcurve" smooth="yes"/>
      <point x="273" y="1234"/>
      <point x="227" y="1292"/>
    </contour>
  </outline>
</glyph>
<glyph name="l" format="2">
  <advance width="707"/>
  <unicode hex="006C"/>
  <outline>
    <contour>
      <point x="222" y="-24" type="line"/>
      <point x="160" y="46" type="line"/>
      <point x="275" y="606" type="line"/>
      <point x="431" y="1470" type="line"/>
      <point x="218" y="1514" type="line"/>
      <point x="224" y="1554" type="line"/>
      <point x="495" y="1604" type="line"/>
      <point x="528" y="1567" type="line"/>
      <point x="346" y="588" type="line"/>
      <point x="254" y="87" type="line"/>
      <point x="485" y="108" type="line"/>
      <point x="485" y="56" type="line"/>
    </contour>
  </outline>
</glyph>
<glyph name="q" format="2">
  <advance width="1579"/>
  <unicode hex="0071"/>
  <outline>
    <contour>
      <point x="77" y="253" type="qcurve" smooth="yes"/>
      <point x="69" y="556"/>
      <point x="624" y="994"/>
      <point x="971" y="994" type="qcurve" smooth="yes"/>
      <point x="1082" y="994"/>
      <point x="1217" y="977"/>
      <point x="1259" y="955" type="qcurve"/>
      <point x="1287" y="1001" type="line"/>
      <point x="1336" y="1001" type="line"/>
      <point x="1332" y="820" type="line"/>
      <point x="1245" y="447" type="line"/>
      <point x="1082" y="-327" type="line"/>
      <point x="1301" y="-382" type="line"/>
      <point x="1286" y="-428" type="line"/>
      <point x="1066" y="-446" type="line"/>
      <point x="978" y="-377" type="line"/>
      <point x="1103" y="199" type="line"/>
      <point x="1095" y="200" type="line"/>
      <point x="964" y="116"/>
      <point x="647" y="5"/>
      <point x="452" y="5" type="qcurve" smooth="yes"/>
      <point x="276" y="5"/>
      <point x="81" y="118"/>
    </contour>
    <contour>
      <point x="177" y="265" type="qcurve" smooth="yes"/>
      <point x="179" y="139"/>
      <point x="336" y="60"/>
      <point x="460" y="60" type="qcurve" smooth="yes"/>
      <point x="678" y="60"/>
      <point x="1111" y="241"/>
      <point x="1159" y="418" type="qcurve" smooth="yes"/>
      <point x="1259" y="852" type="line"/>
      <point x="1253" y="882"/>
      <point x="1081" y="926"/>
      <point x="909" y="926" type="qcurve" smooth="yes"/>
      <point x="608" y="926"/>
      <point x="173" y="505"/>
    </contour>
  </outline>
</glyph>
<glyph name="r" format="2">
  <advance width="1129"/>
  <unicode hex="0072"/>
  <outline>
    <contour>
      <point x="191" y="-14" type="line"/>
      <point x="150" y="75" type="line"/>
      <point x="255" y="527" type="line"/>
      <point x="329" y="875" type="line"/>
      <point x="67" y="852" type="line"/>
      <point x="70" y="896" type="line"/>
      <point x="365" y="1000" type="line"/>
      <point x="411" y="1000" type="line"/>
      <point x="381" y="736" type="line"/>
      <point x="354" y="588" type="line"/>
      <point x="229" y="92" type="line"/>
      <point x="497" y="112" type="line"/>
      <point x="497" y="66" type="line"/>
    </contour>
    <contour>
      <point x="895" y="704" type="line"/>
      <point x="913" y="931" type="line"/>
      <point x="767" y="931"/>
      <point x="427" y="769"/>
      <point x="351" y="670" type="qcurve"/>
      <point x="342" y="727" type="line"/>
      <point x="405" y="814"/>
      <point x="768" y="1008"/>
      <point x="898" y="1008" type="qcurve" smooth="yes"/>
      <point x="988" y="1008"/>
      <point x="1028" y="941"/>
      <point x="1028" y="893" type="qcurve" smooth="yes"/>
      <point x="1028" y="785"/>
      <point x="969" y="704"/>
      <point x="933" y="704" type="qcurve" smooth="yes"/>
    </contour>
  </outline>
</glyph>
<glyph name="z" format="2">
  <advance width="1240"/>
  <unicode hex="007A"/>
  <outline>
    <contour>
      <point x="29" y="2" type="line"/>
      <point x="0" y="47" type="line"/>
      <point x="138" y="166"/>
      <point x="450" y="437"/>
      <point x="547" y="518" type="qcurve" smooth="yes"/>
      <point x="618" y="579"/>
      <point x="884" y="824"/>
      <point x="1013" y="930" type="qcurve"/>
      <point x="353" y="926" type="line"/>
      <point x="245" y="720" type="line"/>
      <point x="167" y="720" type="line"/>
      <point x="242" y="962" type="line"/>
      <point x="299" y="991" type="line"/>
      <point x="1129" y="992" type="line"/>
      <point x="1155" y="951" type="line"/>
      <point x="1042" y="834"/>
      <point x="790" y="610"/>
      <point x="665" y="499" type="qcurve" smooth="yes"/>
      <point x="588" y="442"/>
      <point x="302" y="193"/>
      <point x="216" y="133" type="qcurve"/>
      <point x="913" y="60" type="line"/>
      <point x="1058" y="253" type="line"/>
      <point x="1114" y="235" type="line"/>
      <point x="1005" y="-5" type="line"/>
      <point x="954" y="-24" type="line"/>
      <point x="132" y="70" type="line"/>
    </contour>
  </outline>
</glyph>
<glyph name="eth" format="2">
  <advance width="1610"/>
  <unicode hex="00F0"/>
  <outline>
    <contour>
      <point x="-19.0" y="534.0" type="qcurve" smooth="yes"/>
      <point x="20.0" y="759.0"/>
      <point x="457.0" y="1018.0"/>
      <point x="763.0" y="1012.0" type="qcurve" smooth="yes"/>
      <point x="1060.0" y="1004.0"/>
      <point x="1399.0" y="694.0"/>
      <point x="1353.0" y="460.0" type="qcurve"/>
      <point x="1246.0" y="473.0" type="line"/>
      <point x="1292.0" y="656.0"/>
      <point x="1008.0" y="939.0"/>
      <point x="748.0" y="954.0" type="qcurve" smooth="yes"/>
      <point x="471.0" y="969.0"/>
      <point x="119.0" y="743.0"/>
      <point x="91.0" y="543.0" type="qcurve" smooth="yes"/>
      <point x="58.0" y="324.0"/>
      <point x="320.0" y="62.0"/>
      <point x="579.0" y="50.0" type="qcurve" smooth="yes"/>
      <point x="853.0" y="37.0"/>
      <point x="1222.0" y="290.0"/>
      <point x="1259.0" y="473.0" type="qcurve" smooth="yes"/>
      <point x="1352.0" y="927.0"/>
      <point x="1157.0" y="1440.0"/>
      <point x="900.0" y="1460.0" type="qcurve" smooth="yes"/>
      <point x="791.0" y="1461.0"/>
      <point x="462.0" y="1395.0"/>
      <point x="398.0" y="1323.0" type="qcurve"/>
      <point x="368.0" y="1323.0" type="line"/>
      <point x="368.0" y="1383.0" type="line"/>
      <point x="449.0" y="1461.0"/>
      <point x="789.0" y="1532.0"/>
      <point x="923.0" y="1524.0" type="qcurve" smooth="yes"/>
      <point x="1196.0" y="1502.0"/>
      <point x="1446.0" y="962.0"/>
      <point x="1361.0" y="512.0" type="qcurve" smooth="yes"/>
      <point x="1307.0" y="243.0"/>
      <point x="881.0" y="-27.0"/>
      <point x="571.0" y="-16.0" type="qcurve" smooth="yes"/>
      <point x="265.0" y="-5.0"/>
      <point x="-59.0" y="295.0"/>
    </contour>
    <contour>
      <point x="1093.0" y="1342.0" type="line"/>
      <point x="1442.0" y="1489.0" type="line"/>
      <point x="1475.0" y="1433.0" type="line"/>
      <point x="1118.0" y="1285.0" type="line"/>
      <point x="762.0" y="1119.0" type="line"/>
      <point x="720.0" y="1174.0" type="line"/>
    </contour>
  </outline>
</glyph>
<glyph name="florin" format="2">
  <advance width="874"/>
  <unicode hex="0192"/>
  <outline>
    <contour>
      <point x="230.0" y="-75.0" type="line" smooth="yes"/>
      <point x="212.0" y="-173.0"/>
      <point x="79.0" y="-307.0"/>
      <point x="-51.0" y="-307.0" type="qcurve" smooth="yes"/>
      <point x="-94.0" y="-307.0"/>
      <point x="-119.0" y="-301.0"/>
      <point x="-139.0" y="-295.0" type="qcurve" smooth="yes"/>
      <point x="-160.0" y="-289.0" type="line"/>
      <point x="-149.0" y="-226.0" type="line"/>
      <point x="-125.0" y="-232.0" type="line" smooth="yes"/>
      <point x="-117.0" y="-234.0"/>
      <point x="-67.0" y="-240.0"/>
      <point x="-40.0" y="-240.0" type="qcurve" smooth="yes"/>
      <point x="39.0" y="-240.0"/>
      <point x="139.0" y="-157.0"/>
      <point x="152.0" y="-85.0" type="qcurve" smooth="yes"/>
      <point x="336.0" y="902.0" type="line"/>
      <point x="61.0" y="912.0" type="line"/>
      <point x="51.0" y="956.0" type="line"/>
      <point x="348.0" y="974.0" type="line"/>
      <point x="409.0" y="1304.0" type="line" smooth="yes"/>
      <point x="427.0" y="1403.0"/>
      <point x="574.0" y="1518.0"/>
      <point x="691.0" y="1518.0" type="qcurve" smooth="yes"/>
      <point x="739.0" y="1518.0"/>
      <point x="791.0" y="1505.0"/>
      <point x="803.0" y="1501.0" type="qcurve" smooth="yes"/>
      <point x="817.0" y="1496.0" type="line"/>
      <point x="807.0" y="1430.0" type="line"/>
      <point x="783.0" y="1437.0" type="line" smooth="yes"/>
      <point x="775.0" y="1439.0"/>
      <point x="711.0" y="1454.0"/>
      <point x="668.0" y="1454.0" type="qcurve" smooth="yes"/>
      <point x="590.0" y="1454.0"/>
      <point x="494.0" y="1378.0"/>
      <point x="481.0" y="1305.0" type="qcurve" smooth="yes"/>
      <point x="425.0" y="975.0" type="line"/>
      <point x="731.0" y="975.0" type="line"/>
      <point x="732.0" y="923.0" type="line"/>
      <point x="410.0" y="912.0" type="line"/>
    </contour>
  </outline>
</glyph>
<glyph name="schwa" format="2">
  <advance width="1317"/>
  <unicode hex="0259"/>
  <outline>
    <contour>
      <point x="1117.0" y="524.0" type="qcurve" smooth="yes"/>
      <point x="1065.0" y="273.0"/>
      <point x="663.0" y="-9.0"/>
      <point x="405.0" y="-9.0" type="qcurve" smooth="yes"/>
      <point x="237.0" y="-9.0"/>
      <point x="119.0" y="25.0"/>
      <point x="74.0" y="24.0" type="qcurve" smooth="yes"/>
      <point x="32.0" y="103.0"/>
      <point x="24.0" y="305.0"/>
      <point x="44.0" y="390.0" type="qcurve" smooth="yes"/>
      <point x="50.0" y="414.0" type="line"/>
      <point x="66.0" y="444.0" type="line"/>
      <point x="179.0" y="442.0"/>
      <point x="305.0" y="442.0"/>
      <point x="406.0" y="442.0" type="qcurve" smooth="yes"/>
      <point x="1063.0" y="444.0" type="line"/>
      <point x="1014.0" y="391.0" type="line"/>
      <point x="142.0" y="383.0" type="line"/>
      <point x="127.0" y="350.0"/>
      <point x="113.0" y="188.0"/>
      <point x="141.0" y="110.0" type="qcurve" smooth="yes"/>
      <point x="163.0" y="87.0"/>
      <point x="290.0" y="53.0"/>
      <point x="412.0" y="53.0" type="qcurve" smooth="yes"/>
      <point x="628.0" y="53.0"/>
      <point x="970.0" y="293.0"/>
      <point x="1016.0" y="483.0" type="qcurve" smooth="yes"/>
      <point x="1067.0" y="692.0"/>
      <point x="884.0" y="934.0"/>
      <point x="676.0" y="939.0" type="qcurve" smooth="yes"/>
      <point x="490.0" y="944.0"/>
      <point x="175.0" y="829.0"/>
      <point x="66.0" y="730.0" type="qcurve"/>
      <point x="36.0" y="759.0" type="line"/>
      <point x="19.0" y="777.0" type="line"/>
      <point x="124.0" y="882.0"/>
      <point x="452.0" y="1003.0"/>
      <point x="667.0" y="998.0" type="qcurve" smooth="yes"/>
      <point x="961.0" y="990.0"/>
      <point x="1158.0" y="720.0"/>
    </contour>
  </outline>
</glyph>
<glyph name="dotaccent" format="2">
  <advance width="1024"/>
  <unicode hex="02D9"/>
  <outline>
    <contour>
      <point x="496.0" y="1253.0" type="qcurve" smooth="yes"/>
      <point x="496.0" y="1298.0"/>
      <point x="545.0" y="1346.0"/>
      <point x="592.0" y="1346.0" type="qcurve" smooth="yes"/>
      <point x="636.0" y="1346.0"/>
      <point x="688.0" y="1294.0"/>
      <point x="688.0" y="1253.0" type="qcurve" smooth="yes"/>
      <point x="688.0" y="1209.0"/>
      <point x="639.0" y="1159.0"/>
      <point x="592.0" y="1159.0" type="qcurve" smooth="yes"/>
      <point x="550.0" y="1159.0"/>
      <point x="496.0" y="1212.0"/>
    </contour>
  </outline>
</glyph>
<glyph name="quoteright" format="2">
  <advance width="496"/>
  <unicode hex="2019"/>
  <outline>
    <contour>
      <point x="262.0" y="1215.0" type="line"/>
      <point x="299.0" y="1242.0"/>
      <point x="377.0" y="1332.0"/>
      <point x="393.0" y="1381.0" type="qcurve"/>
      <point x="351.0" y="1381.0"/>
      <point x="304.0" y="1425.0"/>
      <point x="304.0" y="1460.0" type="qcurve" smooth="yes"/>
      <point x="304.0" y="1494.0"/>
      <point x="353.0" y="1544.0"/>
      <point x="390.0" y="1544.0" type="qcurve" smooth="yes"/>
      <point x="424.0" y="1544.0"/>
      <point x="474.0" y="1493.0"/>
      <point x="474.0" y="1443.0" type="qcurve" smooth="yes"/>
      <point x="474.0" y="1382.0"/>
      <point x="363.0" y="1228.0"/>
      <point x="289.0" y="1182.0" type="qcurve"/>
    </contour>
  </outline>
</glyph>
<glyph name="fraction" format="2">
  <advance width="568"/>
  <unicode hex="2044"/>
  <outline>
    <contour>
      <point x="-375.0" y="25.0" type="line"/>
      <point x="783.0" y="1529.0" type="line"/>
      <point x="838.0" y="1488.0" type="line"/>
      <point x="-320.0" y="-16.0" type="line"/>
    </contour>
  </outline>
</glyph>
<glyph name="guarani" format="2">
  <advance width="1498"/>
  <unicode hex="20B2"/>
  <outline>
    <contour>
      <point x="522.0" y="-150.0" type="line"/>
      <point x="562.0" y="48.0" type="line"/>
      <point x="562.0" y="46.0" type="line"/>
      <point x="719.0" y="838.0" type="line"/>
      <point x="786.0" y="803.0" type="line"/>
      <point x="634.0" y="36.0" type="line"/>
      <point x="637.0" y="35.0" type="line"/>
      <point x="604.0" y="-142.0" type="line"/>
    </contour>
    <contour>
      <point x="874.0" y="1646.0" type="line"/>
      <point x="957.0" y="1646.0" type="line"/>
      <point x="925.0" y="1481.0" type="line"/>
      <point x="920.0" y="1481.0" type="line"/>
      <point x="786.0" y="803.0" type="line"/>
      <point x="719.0" y="838.0" type="line"/>
      <point x="846.0" y="1486.0" type="line"/>
      <point x="843.0" y="1487.0" type="line"/>
    </contour>
    <contour>
      <point x="68.0" y="766.0" type="qcurve" smooth="yes"/>
      <point x="113.0" y="1135.0"/>
      <point x="601.0" y="1529.0"/>
      <point x="973.0" y="1520.0" type="qcurve" smooth="yes"/>
      <point x="1154.0" y="1518.0"/>
      <point x="1377.0" y="1371.0"/>
      <point x="1403.0" y="1237.0" type="qcurve"/>
      <point x="1296.0" y="1237.0" type="line"/>
      <point x="1275.0" y="1326.0"/>
      <point x="1119.0" y="1443.0"/>
      <point x="954.0" y="1443.0" type="qcurve" smooth="yes"/>
      <point x="685.0" y="1443.0"/>
      <point x="190.0" y="1116.0"/>
      <point x="142.0" y="760.0" type="qcurve" smooth="yes"/>
      <point x="96.0" y="414.0"/>
      <point x="334.0" y="57.0"/>
      <point x="586.0" y="57.0" type="qcurve" smooth="yes"/>
      <point x="742.0" y="57.0"/>
      <point x="1037.0" y="156.0"/>
      <point x="1153.0" y="218.0" type="qcurve"/>
      <point x="1227.0" y="652.0" type="line"/>
      <point x="992.0" y="677.0" type="line"/>
      <point x="1006.0" y="732.0" type="line"/>
      <point x="1346.0" y="732.0" type="line"/>
      <point x="1246.0" y="173.0" type="line"/>
      <point x="1189.0" y="143.0" type="line"/>
      <point x="1059.0" y="84.0"/>
      <point x="755.0" y="-5.0"/>
      <point x="590.0" y="-5.0" type="qcurve" smooth="yes"/>
      <point x="281.0" y="-5.0"/>
      <point x="19.0" y="371.0"/>
    </contour>
  </outline>
</glyph>
<glyph name="leftanglebracket" format="2">
  <advance width="1161"/>
  <unicode hex="27E8"/>
  <outline>
    <contour>
      <point x="1193.0" y="1496.0" type="line"/>
      <point x="1219.0" y="1444.0" type="line"/>
      <point x="140.0" y="705.0" type="line"/>
      <point x="891.0" y="-131.0" type="line"/>
      <point x="874.0" y="-151.0" type="line"/>
      <point x="57.0" y="688.0" type="line"/>
      <point x="57.0" y="734.0" type="line"/>
    </contour>
  </outline>
</glyph>
<glyph name="nine.lc" format="2">
  <advance width="1381"/>
  <outline>
    <contour>
      <point x="1277.0" y="640.0" type="qcurve" smooth="yes"/>
      <point x="1293.0" y="328.0"/>
      <point x="695.0" y="-252.0"/>
      <point x="183.0" y="-385.0" type="qcurve"/>
      <point x="151.0" y="-339.0" type="line"/>
      <point x="607.0" y="-205.0"/>
      <point x="1183.0" y="321.0"/>
      <point x="1174.0" y="650.0" type="qcurve" smooth="yes"/>
      <point x="1171.0" y="797.0"/>
      <point x="915.0" y="999.0"/>
      <point x="716.0" y="1000.0" type="qcurve" smooth="yes"/>
      <point x="471.0" y="1001.0"/>
      <point x="173.0" y="782.0"/>
      <point x="187.0" y="611.0" type="qcurve" smooth="yes"/>
      <point x="197.0" y="500.0"/>
      <point x="378.0" y="367.0"/>
      <point x="555.0" y="367.0" type="qcurve" smooth="yes"/>
      <point x="643.0" y="367.0"/>
      <point x="815.0" y="413.0"/>
      <point x="864.0" y="435.0" type="qcurve"/>
      <point x="885.0" y="390.0" type="line"/>
      <point x="840.0" y="359.0"/>
      <point x="649.0" y="302.0"/>
      <point x="540.0" y="302.0" type="qcurve" smooth="yes"/>
      <point x="348.0" y="302.0"/>
      <point x="100.0" y="457.0"/>
      <point x="92.0" y="612.0" type="qcurve" smooth="yes"/>
      <point x="83.0" y="801.0"/>
      <point x="429.0" y="1063.0"/>
      <point x="733.0" y="1063.0" type="qcurve" smooth="yes"/>
      <point x="992.0" y="1063.0"/>
      <point x="1268.0" y="819.0"/>
    </contour>
  </outline>
</glyph>
<glyph name="tildecomb.case" format="2">
  <advance width="1024"/>
  <outline>
    <contour>
      <point x="246.0" y="1684.0" type="line"/>
      <point x="288.0" y="1744.0"/>
      <point x="402.0" y="1828.0"/>
      <point x="464.0" y="1828.0" type="qcurve" smooth="yes"/>
      <point x="501.0" y="1828.0"/>
      <point x="561.0" y="1795.0"/>
      <point x="591.0" y="1772.0" type="qcurve" smooth="yes"/>
      <point x="611.0" y="1756.0"/>
      <point x="680.0" y="1708.0"/>
      <point x="716.0" y="1708.0" type="qcurve" smooth="yes"/>
      <point x="762.0" y="1708.0"/>
      <point x="858.0" y="1771.0"/>
      <point x="885.0" y="1806.0" type="qcurve"/>
      <point x="918.0" y="1766.0" type="line"/>
      <point x="870.0" y="1694.0"/>
      <point x="753.0" y="1618.0"/>
      <point x="694.0" y="1618.0" type="qcurve" smooth="yes"/>
      <point x="650.0" y="1618.0"/>
      <point x="575.0" y="1664.0"/>
      <point x="550.0" y="1684.0" type="qcurve" smooth="yes"/>
      <point x="527.0" y="1705.0"/>
      <point x="465.0" y="1738.0"/>
      <point x="438.0" y="1738.0" type="qcurve" smooth="yes"/>
      <point x="396.0" y="1738.0"/>
      <point x="302.0" y="1668.0"/>
      <point x="283.0" y="1642.0" type="qcurve"/>
    </contour>
  </outline>
</glyph>
